#!OML:ASF E:\motion texture\Top Level 1\Subject 1\Session 1\male.ASF
:FULLY-SPECIFIED
:DEGREES
412
root -26.3291 17.7249 3.19369 846.732 -77.6459 -842.262
lowerback -3.24192 3.88744 8.69926
upperback -2.61033 4.87234 2.19531
thorax -0.361646 2.2995 -2.41446
lowerneck -16.0452 -5.52124 -7.25418
upperneck 12.4217 -7.09359 7.66753
head 6.96659 -3.12611 2.89048
rclavicle 1.2834e-014 -1.07344e-014
rhumerus -20.275 20.4688 -89.0801
rradius 71.6654
rwrist -9.43785
rhand -10.2789 -13.2363
rfingers 7.12502
rthumb 15.715 -42.6182
lclavicle 1.2834e-014 -1.07344e-014
lhumerus -51.592 -7.91321 90.6801
lradius 57.591
lwrist 5.82505
lhand -9.52203 4.60157
lfingers 7.12502
lthumb 16.4439 33.9246
rfemur 8.65079 5.51626 33.5802
rtibia 26.8768
rfoot 351.259 1.77135
rtoes -7.2136
lfemur -41.4179 6.95544 -7.00589
ltibia 47.2187
lfoot 912.188 172.106
ltoes -6.57713
413
root -26.5333 17.6916 3.21675 847.495 -77.8034 -842.957
lowerback -3.59364 3.74894 8.54789
upperback -2.72813 4.65696 2.15497
thorax -0.317889 2.19109 -2.36518
lowerneck -15.9097 -5.39753 -7.11911
upperneck 12.6356 -6.97432 7.62218
head 6.99677 -3.06874 2.87038
rclavicle -2.10339e-014 3.16068e-014
rhumerus -22.4206 20.2578 -89.6802
rradius 71.2543
rwrist -9.37633
rhand -10.0614 -13.1761
rfingers 7.12502
rthumb 15.9245 -42.5414
lclavicle -2.10339e-014 3.16068e-014
lhumerus -50.9143 -8.10216 91.4083
lradius 57.75
lwrist 5.86299
lhand -9.68729 4.70262
lfingers 7.12502
lthumb 16.2848 34.0388
rfemur 7.94742 4.97332 32.7799
rtibia 28.9101
rfoot 352.502 2.68179
rtoes -7.59591
lfemur -38.6005 6.25295 -7.34723
ltibia 44.8954
lfoot 907.543 171.82
ltoes -6.64426
414
root -26.7325 17.6606 3.24051 848.065 -78.1286 -843.474
lowerback -3.88473 3.53744 8.25659
upperback -2.84849 4.35852 2.10119
thorax -0.326744 2.04181 -2.26311
lowerneck -15.8195 -5.26095 -6.96369
upperneck 12.8831 -6.83725 7.55432
head 7.04279 -3.00233 2.84084
rclavicle 1.22004e-014 -1.19271e-014
rhumerus -24.537 20.015 -90.2244
rradius 70.8062
rwrist -9.21707
rhand -9.79984 -13.0965
rfingers 7.12502
rthumb 16.1764 -42.4415
lclavicle 1.22004e-014 -1.19271e-014
lhumerus -50.1893 -8.25172 92.1378
lradius 57.9555
lwrist 5.8757
lhand -9.851 4.78302
lfingers 7.12502
lthumb 16.1271 34.132
rfemur 6.95872 4.29862 31.8094
rtibia 31.3008
rfoot 354.27 3.53123
rtoes -7.7883
lfemur -36.1201 5.67147 -8.04265
ltibia 42.7529
lfoot 903.412 172.188
ltoes -5.07376
415
root -26.9232 17.6341 3.26331 848.472 -78.6757 -843.869
lowerback -4.06465 3.24189 7.75652
upperback -2.96081 3.97087 2.02403
thorax -0.406618 1.85003 -2.08239
lowerneck -15.7953 -5.11939 -6.78957
upperneck 13.1553 -6.69152 7.46792
head 7.10643 -2.93056 2.80203
rclavicle -2.71465e-014 -5.12864e-014
rhumerus -26.5883 19.73 -90.693
rradius 70.3104
rwrist -8.93425
rhand -9.51712 -12.9833
rfingers 7.12502
rthumb 16.4486 -42.306
lclavicle -2.71465e-014 -5.12864e-014
lhumerus -49.3864 -8.38315 92.8688
lradius 58.2014
lwrist 5.87674
lhand -10.0268 4.83472
lfingers 7.12502
lthumb 15.9578 34.1974
rfemur 5.67651 3.48843 30.6361
rtibia 34.0408
rfoot 356.691 4.22257
rtoes -7.89681
lfemur -33.968 5.20538 -9.08892
ltibia 40.7685
lfoot 900.23 173.019
ltoes -2.19737
416
root -27.1034 17.6137 3.28436 848.697 -79.4675 -844.15
lowerback -4.10518 2.85956 7.021
upperback -3.03981 3.49197 1.92218
thorax -0.543214 1.61717 -1.80717
lowerneck -15.8375 -4.97887 -6.63188
upperneck 13.4149 -6.54222 7.40502
head 7.17906 -2.85428 2.77293
rclavicle -6.65929e-015 -2.66371e-014
rhumerus -28.5308 19.4148 -91.0574
rradius 69.7634
rwrist -8.54293
rhand -9.26358 -12.8575
rfingers 7.12502
rthumb 16.6927 -42.1598
lclavicle -6.65929e-015 -2.66371e-014
lhumerus -48.4651 -8.51704 93.6037
lradius 58.4804
lwrist 5.88165
lhand -10.213 4.88113
lfingers 7.12502
lthumb 15.7785 34.258
rfemur 4.13128 2.54667 29.2623
rtibia 37.0927
rfoot 359.819 4.65484
rtoes -7.69319
lfemur -32.0829 4.74743 -10.4109
ltibia 38.9363
lfoot 898 173.988
ltoes 0.801495
417
root -27.2723 17.5997 3.30316 848.727 -80.4603 -844.31
lowerback -4.00442 2.41371 6.08892
upperback -3.07177 2.94685 1.80245
thorax -0.712909 1.35657 -1.44584
lowerneck -15.9505 -4.85427 -6.50851
upperneck 13.6403 -6.40625 7.37836
head 7.25666 -2.78137 2.7587
rclavicle 8.28684e-015 6.55989e-015
rhumerus -30.3573 19.045 -91.2962
rradius 69.1759
rwrist -8.06127
rhand -9.0661 -12.7256
rfingers 7.12502
rthumb 16.8828 -42.0117
lclavicle 8.28684e-015 6.55989e-015
lhumerus -47.4005 -8.70025 94.3518
lradius 58.7858
lwrist 5.92377
lhand -10.3856 4.9856
lfingers 7.12502
lthumb 15.6123 34.3756
rfemur 2.34733 1.51439 27.7519
rtibia 40.4177
rfoot 363.653 4.75712
rtoes -6.80034
lfemur -30.4085 4.20337 -11.8783
ltibia 37.3013
lfoot 896.428 174.792
ltoes 3.44985
418
root -27.4304 17.5911 3.31993 848.557 -81.5558 -844.335
lowerback -3.7744 1.93855 5.05539
upperback -3.05328 2.37093 1.67663
thorax -0.893883 1.0848 -1.03288
lowerneck -16.1042 -4.74733 -6.42556
upperneck 13.7988 -6.28672 7.40138
head 7.32409 -2.71342 2.76495
rclavicle -4.73356e-015 -1.59028e-014
rhumerus -32.0657 18.6115 -91.4104
rradius 68.5527
rwrist -7.53649
rhand -8.9581 -12.5864
rfingers 7.12502
rthumb 16.9868 -41.8636
lclavicle -4.73356e-015 -1.59028e-014
lhumerus -46.1979 -8.95542 95.1011
lradius 59.1191
lwrist 6.01085
lhand -10.4914 5.18958
lfingers 7.12502
lthumb 15.5104 34.5875
rfemur 0.342632 0.460157 26.2144
rtibia 43.9907
rfoot 368.085 4.52963
rtoes -4.72469
lfemur -28.9106 3.53784 -13.3358
ltibia 35.935
lfoot 895.281 175.323
ltoes 5.40722
419
root -27.5783 17.5859 3.33523 847.966 -82.673 -843.992
lowerback -3.43739 1.45634 4.01975
upperback -2.98545 1.78432 1.55878
thorax -1.06827 0.809988 -0.605197
lowerneck -16.2716 -4.65792 -6.38633
upperneck 13.8669 -6.18292 7.47566
head 7.36892 -2.65088 2.79324
rclavicle -6.7711e-015 3.97569e-016
rhumerus -33.6914 18.1021 -91.4041
rradius 67.9509
rwrist -7.03535
rhand -8.92627 -12.4702
rfingers 7.12502
rthumb 17.0174 -41.7447
lclavicle -6.7711e-015 3.97569e-016
lhumerus -44.8699 -9.30751 95.8423
lradius 59.4845
lwrist 6.13623
lhand -10.6002 5.37842
lfingers 7.12502
lthumb 15.4056 34.7844
rfemur -1.85888 -0.580009 24.7574
rtibia 47.7821
rfoot 372.896 4.04598
rtoes -1.13647
lfemur -27.5888 2.74095 -14.6733
ltibia 34.8933
lfoot 894.403 175.55
ltoes 6.60784
420
root -27.7174 17.5823 3.34973 847.096 -83.7038 -843.405
lowerback -3.02461 1.0049 3.07209
upperback -2.86838 1.23046 1.4576
thorax -1.21563 0.55176 -0.201431
lowerneck -16.4484 -4.58192 -6.36293
upperneck 13.8476 -6.09054 7.571
head 7.38894 -2.59298 2.8296
rclavicle -4.3422e-015 2.18663e-015
rhumerus -35.25 17.4956 -91.2894
rradius 67.4089
rwrist -6.61371
rhand -8.95339 -12.3688
rfingers 7.12502
rthumb 16.9913 -41.6457
lclavicle -4.3422e-015 2.18663e-015
lhumerus -43.4238 -9.77186 96.5533
lradius 59.8885
lwrist 6.2881
lhand -10.6833 5.59253
lfingers 7.12502
lthumb 15.3256 35.0046
rfemur -4.23917 -1.51796 23.4721
rtibia 51.7802
rfoot 377.57 3.47552
rtoes 3.48965
lfemur -26.4147 1.91384 -15.8159
ltibia 34.1286
lfoot 893.724 175.531
ltoes 7.4302
421
root -27.8492 17.58 3.36336 846.309 -84.6118 -842.939
lowerback -2.55206 0.600737 2.22694
upperback -2.70391 0.730149 1.36721
thorax -1.33166 0.319415 0.164038
lowerneck -16.6226 -4.50969 -6.33132
upperneck 13.7488 -6.00003 7.66863
head 7.38245 -2.5359 2.86511
rclavicle 8.69683e-015 4.07509e-015
rhumerus -36.7593 16.7786 -91.0878
rradius 66.9617
rwrist -6.2997
rhand -9.00165 -12.2717
rfingers 7.12502
rthumb 16.9449 -41.5526
lclavicle 8.69683e-015 4.07509e-015
lhumerus -41.8808 -10.3438 97.2013
lradius 60.3363
lwrist 6.41901
lhand -10.662 5.84212
lfingers 7.12502
lthumb 15.346 35.2527
rfemur -6.77924 -2.31637 22.3683
rtibia 55.9895
rfoot 381.481 3.00425
rtoes 8.34161
lfemur -25.3445 1.18244 -16.7878
ltibia 33.5807
lfoot 893.204 175.327
ltoes 8.01144
422
root -27.974 17.5793 3.37554 846.131 -85.4306 -843.116
lowerback -2.03735 0.242066 1.43225
upperback -2.49346 0.281599 1.27558
thorax -1.41219 0.112162 0.506895
lowerneck -16.7932 -4.43155 -6.29301
upperneck 13.5822 -5.89947 7.77231
head 7.35235 -2.47376 2.90267
rclavicle 5.05658e-015 -6.95746e-015
rhumerus -38.1993 15.9824 -90.8094
rradius 66.6069
rwrist -6.13509
rhand -9.09885 -12.1452
rfingers 7.12502
rthumb 16.8513 -41.434
lclavicle 5.05658e-015 -6.95746e-015
lhumerus -40.2457 -11.0176 97.7656
lradius 60.8204
lwrist 6.53748
lhand -10.7526 5.87664
lfingers 7.12502
lthumb 15.2588 35.2938
rfemur -9.45762 -2.98818 21.3958
rtibia 60.3807
rfoot 384.18 2.71309
rtoes 12.6837
lfemur -24.3396 0.604119 -17.679
ltibia 33.1817
lfoot 892.816 175.014
ltoes 8.48136
423
root -28.0932 17.5817 3.38621 847.708 -86.1669 -845.09
lowerback -1.4774 -0.062811 0.652725
upperback -2.24683 -0.103794 1.17066
thorax -1.47193 -0.0646348 0.833469
lowerneck -16.9591 -4.34058 -6.23231
upperneck 13.3815 -5.78273 7.86434
head 7.30802 -2.40429 2.93465
rclavicle -8.75895e-016 1.03368e-014
rhumerus -39.5695 15.1359 -90.4729
rradius 66.3261
rwrist -6.10432
rhand -9.21392 -11.929
rfingers 7.12502
rthumb 16.7405 -41.2272
lclavicle -8.75895e-016 1.03368e-014
lhumerus -38.558 -11.7814 98.2308
lradius 61.3524
lwrist 6.66006
lhand -10.8807 5.8348
lfingers 7.12502
lthumb 15.1354 35.2613
rfemur -12.2605 -3.53671 20.5047
rtibia 64.9177
rfoot 385.434 2.57832
rtoes 15.7356
lfemur -23.3075 0.222606 -18.5492
ltibia 32.82
lfoot 892.519 174.686
ltoes 8.91041
424
root -28.2148 17.5803 3.39816 849.83 -86.8119 -847.602
lowerback -0.942962 -0.343393 -0.0397878
upperback -1.98226 -0.466826 1.07507
thorax -1.49197 -0.233176 1.12539
lowerneck -17.1457 -4.25618 -6.14078
upperneck 13.1411 -5.67808 7.95092
head 7.25419 -2.33963 2.95791
rclavicle -1.99095e-015 3.13086e-015
rhumerus -40.9972 14.1779 -90.0419
rradius 66.1551
rwrist -6.05312
rhand -9.14076 -11.8301
rfingers 7.12502
rthumb 16.8109 -41.1223
lclavicle -1.99095e-015 3.13086e-015
lhumerus -36.7976 -12.5457 98.5708
lradius 61.9151
lwrist 6.51296
lhand -9.54028 7.04184
lfingers 7.12502
lthumb 16.4263 36.3664
rfemur -15.0807 -3.96899 19.7104
rtibia 69.608
rfoot 386.93 2.41171
rtoes 18.9516
lfemur -22.4519 0.0628451 -19.3279
ltibia 32.7611
lfoot 892.234 174.272
ltoes 9.81565
425
root -28.3161 17.5909 3.40076 857.769 -87.7397 -855.99
lowerback -0.289013 -0.648671 -1.1407
upperback -1.67196 -0.873382 0.894595
thorax -1.51955 -0.419663 1.56487
lowerneck -17.3324 -4.1355 -6.10389
upperneck 12.9122 -5.51937 8.08086
head 7.20297 -2.24816 3.01104
rclavicle 5.00534e-015 -3.32964e-015
rhumerus -42.1267 13.3606 -89.5972
rradius 65.9532
rwrist -6.31923
rhand -9.66817 -11.1903
rfingers 7.12502
rthumb 16.3032 -40.525
lclavicle 5.00534e-015 -3.32964e-015
lhumerus -34.9727 -13.4926 98.8312
lradius 62.4665
lwrist 6.83068
lhand -12.2317 4.52934
lfingers 7.12502
lthumb 13.8338 34.0493
rfemur -18.0759 -4.61525 18.7035
rtibia 74.357
rfoot 384.315 2.8007
rtoes 17.7746
lfemur -21.3133 -0.385311 -20.4993
ltibia 32.251
lfoot 892.054 173.961
ltoes 9.42747
